<svg width="50" height="50" viewBox="0 0 50 50" fill="none" xmlns="http://www.w3.org/2000/svg">
<g id="HandWaving">
<path id="Vector" d="M23.4362 20.7849L18.3581 11.9894C17.8411 11.0922 17.7015 10.0265 17.9699 9.02648C18.2383 8.02644 18.8928 7.17388 19.7895 6.65616C20.6862 6.13844 21.7518 5.99793 22.7521 6.2655C23.7523 6.53307 24.6054 7.18684 25.1239 8.08312L32.9364 21.6148" stroke="white" stroke-width="4" stroke-linecap="round" stroke-linejoin="round"/>
<path id="Vector_2" d="M17.4516 26.0444L10.0297 13.1894C9.77274 12.7451 9.60581 12.2545 9.5385 11.7457C9.47119 11.2369 9.50481 10.7198 9.63744 10.224C9.77007 9.72815 9.99911 9.26333 10.3115 8.85607C10.6238 8.44882 11.0134 8.10711 11.4579 7.85049C11.9024 7.59386 12.3931 7.42735 12.902 7.36046C13.4108 7.29357 13.9279 7.32763 14.4236 7.46067C14.9193 7.59372 15.3839 7.82315 15.7909 8.13585C16.1979 8.44856 16.5393 8.8384 16.7956 9.2831L23.4362 20.785" stroke="white" stroke-width="4" stroke-linecap="round" stroke-linejoin="round"/>
<path id="Vector_3" d="M30.0768 32.2868C29.0408 30.4924 28.7601 28.3599 29.2963 26.3585C29.8326 24.3571 31.142 22.6507 32.9364 21.6147L30.9833 18.2318C30.7263 17.7876 30.5593 17.297 30.492 16.7882C30.4247 16.2794 30.4583 15.7623 30.591 15.2664C30.7236 14.7706 30.9526 14.3058 31.265 13.8986C31.5774 13.4913 31.9669 13.1496 32.4114 12.893C32.8559 12.6363 33.3466 12.4698 33.8555 12.4029C34.3643 12.3361 34.8814 12.3701 35.3771 12.5032C35.8728 12.6362 36.3375 12.8656 36.7444 13.1783C37.1514 13.491 37.4928 13.8809 37.7491 14.3256L41.6553 21.0914C42.6818 22.8684 43.3482 24.8303 43.6164 26.8649C43.8846 28.8995 43.7494 30.967 43.2185 32.9493C42.6875 34.9316 41.7713 36.7899 40.5221 38.4181C39.2729 40.0463 37.7152 41.4125 35.9379 42.4386C34.1607 43.4647 32.1987 44.1306 30.164 44.3984C28.1294 44.6661 26.0619 44.5304 24.0797 43.9991C22.0975 43.4677 20.2394 42.551 18.6114 41.3015C16.9835 40.0519 15.6177 38.4939 14.592 36.7164L7.17015 23.8613C6.65319 22.9642 6.51356 21.8985 6.78197 20.8985C7.05038 19.8984 7.70486 19.0459 8.60157 18.5281C9.49829 18.0104 10.5639 17.8699 11.5641 18.1375C12.5644 18.405 13.4175 19.0588 13.936 19.9551L17.4516 26.0443" stroke="white" stroke-width="4" stroke-linecap="round" stroke-linejoin="round"/>
<path id="Vector_4" d="M34.375 4.49023C36.4324 4.48996 38.4535 5.03154 40.2351 6.06047C42.0166 7.08941 43.4958 8.56941 44.5237 10.3516" stroke="white" stroke-width="4" stroke-linecap="round" stroke-linejoin="round"/>
<path id="Vector_5" d="M13.0733 46.875C10.973 45.1143 9.19858 42.9981 7.83093 40.623" stroke="white" stroke-width="4" stroke-linecap="round" stroke-linejoin="round"/>
</g>
</svg>
